<?xml version="1.0" encoding="UTF-8"?>
<svg xmlns="http://www.w3.org/2000/svg" viewBox="0 0 100.05 99.53">
  <defs>
    <style>
      .cls-1 {
        fill: #f7e6dc;
      }

      .cls-2 {
        fill: #674c51;
      }

      .cls-3 {
        fill: #f5e3cb;
      }

      .cls-4 {
        fill: #edd6ca;
      }

      .cls-5 {
        fill: #fff;
      }

      .cls-6 {
        fill: #fcd9b3;
      }

      .cls-7 {
        fill: #ebcfa8;
      }

      .cls-8 {
        fill: #ff795f;
      }

      .cls-9 {
        fill: #fd9e7f;
      }

      .cls-10 {
        fill: #ff7e69;
      }

      .cls-11 {
        fill: #c1b0a7;
      }

      .cls-12 {
        fill: #b6c3d8;
      }

      .cls-13 {
        fill: #a9524b;
      }

      .cls-14 {
        fill: #a5b1c7;
      }

      .cls-15 {
        fill: #a85954;
      }

      .cls-16 {
        fill: #c9bcb5;
      }

      .cls-17 {
        fill: #c4a5ad;
      }

      .cls-18 {
        fill: #372732;
      }

      .cls-19 {
        fill: #86ba8a;
      }

      .cls-20 {
        fill: #5b443d;
      }

      .cls-21 {
        fill: #3a2a25;
      }

      .cls-22 {
        fill: #4d3932;
      }

      .cls-23 {
        fill: #773938;
      }

      .cls-24 {
        fill: #4d3833;
      }

      .cls-25 {
        fill: #4f3b41;
      }

      .cls-26 {
        opacity: .14;
      }

      .cls-27 {
        mix-blend-mode: screen;
        opacity: .34;
      }

      .cls-28 {
        opacity: .52;
      }

      .cls-29 {
        opacity: .7;
      }

      .cls-30 {
        isolation: isolate;
      }

      .cls-31 {
        opacity: .16;
      }

      .cls-31, .cls-32 {
        mix-blend-mode: multiply;
      }

      .cls-32 {
        opacity: .25;
      }
    </style>
  </defs>
  <g class="cls-30">
    <g id="Layer_2" data-name="Layer 2">
      <g id="_1" data-name="1">
        <g>
          <path class="cls-19" d="m61.28,93.74s-2.14-7.7-7.52-6.29c.44,0,.05-5.57-3.71-7.04-4.94-1.93-7.44,1.34-7.44,1.34,0,0-9.16-8.43-15.95-4.99-6.79,3.43-6.21,6.66-6.21,6.66,0,0-8.7-1.44-9.78,3.13-1.08,4.57-.2,6.04-.2,6.04,0,0-11.04-.56-10.45,2.52.59,3.08,14.68,1.61,18.62.99,3.93-.62,16.84-.89,22.82-.68,5.98.21,19.84,2.07,19.82-1.68Z"/>
          <g>
            <path class="cls-9" d="m52.35,21.21s2-3.63,3.43-5.01c.28-.27.72,1.05.72,1.05l-1.59,3.77-2.56.19Z"/>
            <path class="cls-13" d="m57.25,33.56s-1.63,2.65-4.9,0c-3.27-2.65-.49-12.92-.49-12.92l4.43,1.45.96,11.48Z"/>
            <path class="cls-7" d="m70.4,44.5s6.69,1.85,7.78-2.69c1.09-4.54-2.98-13.59-2.98-13.59,0,0,2.38-7.3,1.3-8.9-1.07-1.6-4.91-.95-4.91-.95l-1.2,26.13Z"/>
            <path class="cls-14" d="m79.46,19.95l-25.82-4.22c-.93-.15.12-6.55,1.05-6.4l25.82,4.22c.84.14-.21,6.54-1.05,6.4Z"/>
            <g>
              <polygon class="cls-2" points="73.12 18.91 72.57 18.82 73.62 12.42 74.17 12.51 73.12 18.91"/>
              <rect class="cls-2" x="60.01" y="10.28" width=".56" height="6.49" transform="translate(2.93 -9.46) rotate(9.19)"/>
            </g>
            <path class="cls-9" d="m77.75,44.43s-3.55-14.1-3.95-15.2c-.4-1.09-4.2,1.14-4.2,1.14l6.43,14.4s1.18,2.28,1.73-.34Z"/>
            <polygon class="cls-7" points="73.49 83.1 69.11 83.42 70.03 91.37 73.77 91.1 73.49 83.1"/>
            <polygon class="cls-7" points="57.12 83.28 61.5 83.28 61.15 91.29 57.4 91.29 57.12 83.28"/>
            <path class="cls-24" d="m54,39.81l2.01,45.16h5.9l.27-35.73c0-.33-.06-.52.27-.52h0c.33,0,.32.2.33.52l5.86,35.73h5.53s-1.32-45.83-1.75-47.2c-.43-1.37-18.42,2.03-18.42,2.03Z"/>
            <path class="cls-13" d="m61.24,93.29l.05-4.96s-2.85.31-4.06-.16c0,0,0,5.07-.07,5.3-.07.23-1.08,1.42-1.52,1.77-.44.35-.83,2.2-.08,2.3.75.1,2.26.01,2.94-.06.68-.08.38-.03.78-.09l.88-.12c.23.12.98,0,1.26-.28.27-.28.34-1.66.34-2.19,0-.86-.51-1.5-.51-1.5Z"/>
            <path class="cls-13" d="m56.85,94.61s-.24.4-.9.48c-.66.07-1.94-.05-2.34.58-.4.64-.53,1.74.35,1.92s3-.06,3-.06l-.11-2.92Z"/>
            <g class="cls-27">
              <path class="cls-13" d="m59.67,89.53c.47-.16.86-.43,1.6.69l.02-1.9s-2.85.31-4.06-.16c0,0,0,5.07-.07,5.3-.02.07-.12.22-.27.41h0s.2.59,1.21.24c.71-.25.57-1.12.65-1.94.08-.82-.16-2.27.93-2.64Z"/>
            </g>
            <g>
              <path class="cls-5" d="m57.24,89.67s0,0,0,0l1.76-.46s.02-.02.02-.03c0-.01-.02-.02-.03-.02l-1.76.45s-.02.02-.02.03c0,.01.01.02.03.02Z"/>
              <path class="cls-5" d="m58.83,89.74s.02,0,.02-.02c0-.01,0-.03-.02-.03l-1.63-.45s-.03,0-.03.02c0,.01,0,.03.02.03l1.63.45h0Z"/>
              <path class="cls-5" d="m57.28,90.15h0l1.76-.45s.02-.02.02-.03c0-.01-.02-.02-.03-.02l-1.76.46s-.02.02-.02.03c0,.01.02.02.03.02Z"/>
              <path class="cls-5" d="m58.88,90.23s.02,0,.03-.02c0-.01,0-.03-.02-.03l-1.63-.45s-.03,0-.03.02c0,.01,0,.03.02.03l1.63.45s0,0,0,0Z"/>
              <path class="cls-5" d="m57.23,90.7s0,0,0,0l1.76-.45s.02-.02.02-.04c0-.01-.02-.02-.03-.02l-1.76.45s-.02.02-.02.03c0,.01.01.02.03.02Z"/>
              <path class="cls-5" d="m58.83,90.77s.02,0,.03-.02c0-.01,0-.03-.02-.03l-1.63-.45s0,0,0,0c-.01,0-.02,0-.02.02,0,.01,0,.03.02.03l1.63.45s0,0,0,0Z"/>
              <path class="cls-5" d="m57.27,91.18h0l1.76-.46s.02-.02.02-.03c0-.01-.02-.02-.03-.02l-1.76.45s-.02.02-.02.03c0,.01.02.02.03.02Z"/>
              <path class="cls-5" d="m58.87,91.26s.02,0,.03-.02c0-.01,0-.03-.02-.04l-1.63-.45s-.03,0-.03.02c0,.01,0,.03.02.03l1.63.45h0Z"/>
              <path class="cls-5" d="m57.22,91.71s0,0,0,0l1.76-.45s.02-.02.02-.03c0-.02-.02-.02-.03-.02l-1.76.46s-.02.02-.02.03c0,.01.01.02.03.02Z"/>
              <path class="cls-5" d="m58.81,91.78s.02,0,.03-.02c0-.01,0-.03-.02-.03l-1.63-.45s0,0,0,0c-.01,0-.02,0-.03.02,0,.01,0,.03.02.03l1.63.45s0,0,0,0Z"/>
              <path class="cls-5" d="m56.88,92.11s0,0,0,0l1.93-.33s.03-.02.02-.03c0-.01-.02-.02-.03-.02,0,0,0,0,0,0l-1.93.33s-.03.02-.02.03c0,.01.01.02.03.02Z"/>
              <path class="cls-5" d="m58.64,92.31s.02,0,.03-.02c0-.01,0-.03-.01-.03l-1.5-.6s-.03,0-.04.01c0,.01,0,.03.01.03l1.5.6s0,0,0,0Z"/>
              <path class="cls-5" d="m56.76,93.55s0,0,.01,0l1.64-.77s.02-.02.01-.04c0-.01-.02-.02-.03-.01l-1.65.77s-.02.02-.01.04c0,0,.01.01.02.01Z"/>
              <path class="cls-5" d="m58.51,93.15s.03-.01.03-.03c0-.01-.01-.03-.02-.03l-1.69-.14h0s-.03.01-.03.03c0,.01.01.03.03.03l1.69.14h0Z"/>
              <path class="cls-5" d="m56.82,93.01s0,0,0,0l1.84-.68s.02-.02.02-.03c0-.01-.02-.02-.04-.01l-1.84.68s-.02.02-.02.03c0,.01.01.02.03.02Z"/>
              <path class="cls-5" d="m58.48,92.77s.03,0,.03-.02c0-.01,0-.03-.02-.03l-1.59-.31s-.03,0-.03.02c0,.01,0,.03.02.03l1.59.32h0Z"/>
            </g>
            <path class="cls-23" d="m61.65,96.11c-.52-.01-1.25-.02-1.49.02-.39.06-.41.6-1.41.61-1,.02-3.84.22-4.03.07-.19-.15-.1-.6-.1-.6l-1.2-.08c-.22.61-.14,1.31.63,1.45.99.18,3.4-.06,3.4-.06h0c.25-.02.46-.04.63-.05.78-.08.43-.03.88-.09l.99-.12c.26.12,1.12,0,1.42-.28.14-.12.22-.47.28-.87Z"/>
            <g class="cls-29">
              <path class="cls-23" d="m55.8,95.14s1.59-.13,2.81.18c.04.02-.91-.72-2.81-.18Z"/>
            </g>
            <path class="cls-13" d="m73.98,93.09l-.31-4.96s-2.82.51-4.06.14c0,0,.36,5.06.3,5.29-.05.23-.97,1.49-1.39,1.88-.41.38-.66,2.26.09,2.3.76.04,2.25-.15,2.93-.27.67-.12.38-.05.76-.14l.87-.18c.24.1.98-.08,1.23-.37.25-.29.22-1.68.19-2.21-.06-.85-.62-1.46-.62-1.46Z"/>
            <path class="cls-13" d="m69.56,94.73s-.21.42-.86.54c-.65.12-1.94.08-2.29.75-.35.66-.4,1.77.48,1.89.89.12,2.99-.27,2.99-.27l-.32-2.9Z"/>
            <g class="cls-27">
              <path class="cls-13" d="m72.15,89.46c.46-.19.83-.49,1.64.58l-.12-1.9s-2.82.51-4.06.14c0,0,.36,5.06.3,5.29-.01.07-.11.23-.24.42h0s.24.57,1.22.15c.69-.3.49-1.15.51-1.98.02-.83-.32-2.26.74-2.7Z"/>
            </g>
            <g>
              <path class="cls-5" d="m69.73,89.77s0,0,0,0l1.72-.58s.02-.02.02-.03c0-.01-.02-.02-.03-.02l-1.72.58s-.02.02-.02.03c0,.01.01.02.03.02Z"/>
              <path class="cls-5" d="m71.33,89.73s.02,0,.03-.02c0-.01,0-.03-.02-.03l-1.66-.33h0s-.02,0-.03.02c0,.02,0,.03.02.03l1.66.33h0Z"/>
              <path class="cls-5" d="m69.81,90.25s0,0,0,0l1.72-.58s.02-.02.02-.04c0-.01-.02-.02-.04-.02l-1.72.58s-.02.02-.02.03c0,.01.01.02.02.02Z"/>
              <path class="cls-5" d="m71.41,90.21s.02,0,.03-.02c0-.01,0-.03-.02-.03l-1.66-.33h0s-.02,0-.03.02c0,.01,0,.03.02.03l1.66.33s0,0,0,0Z"/>
              <path class="cls-5" d="m69.8,90.8s0,0,0,0l1.72-.58s.02-.02.02-.04c0-.01-.02-.02-.04-.02l-1.72.58s-.02.02-.02.03.01.02.03.02Z"/>
              <path class="cls-5" d="m71.39,90.75s.02,0,.03-.02c0-.01,0-.03-.02-.03l-1.66-.33s-.03,0-.03.02c0,.01,0,.03.02.03l1.66.33s0,0,0,0Z"/>
              <path class="cls-5" d="m69.88,91.28s0,0,0,0l1.72-.58s.02-.02.02-.03c0-.01-.02-.02-.03-.02l-1.72.58s-.02.02-.02.03c0,.01.01.02.02.02Z"/>
              <path class="cls-5" d="m71.47,91.24s.02,0,.03-.02c0-.01,0-.03-.02-.03l-1.66-.33s-.03,0-.03.02c0,.01,0,.03.02.03l1.66.33h0Z"/>
              <path class="cls-5" d="m69.86,91.8h0l1.72-.58s.02-.02.02-.04c0-.01-.02-.02-.04-.02l-1.72.58s-.02.02-.02.04c0,.01.01.02.03.02Z"/>
              <path class="cls-5" d="m71.45,91.76s.03,0,.03-.02c0-.01,0-.03-.02-.03l-1.66-.33s0,0,0,0c-.01,0-.03,0-.03.02,0,.01,0,.03.02.03l1.66.33h0Z"/>
              <path class="cls-5" d="m69.55,92.23h0l1.9-.47s.02-.02.02-.03c0-.01-.02-.02-.03-.02l-1.9.47s-.02.02-.02.03.01.02.03.02Z"/>
              <path class="cls-5" d="m71.32,92.31s.02,0,.03-.02c0-.01,0-.03-.02-.03l-1.54-.49s-.03,0-.03.02c0,.01,0,.03.02.04l1.54.49s0,0,0,0Z"/>
              <path class="cls-5" d="m69.53,93.68s0,0,.01,0l1.59-.89s.02-.02,0-.04c0-.01-.02-.02-.04-.01l-1.59.89s-.02.02-.01.04c0,0,.01.01.02.01Z"/>
              <path class="cls-5" d="m71.25,93.15s.03-.01.03-.03-.01-.03-.03-.03l-1.69-.02h0s-.02.01-.02.03.01.03.02.03l1.69.02h0Z"/>
              <path class="cls-5" d="m69.55,93.13s0,0,.01,0l1.79-.81s.02-.02.01-.04c0-.01-.02-.02-.04-.01l-1.79.81s-.02.02-.01.04c0,.01.01.02.02.02Z"/>
              <path class="cls-5" d="m71.2,92.77s.02-.01.03-.02c0-.02,0-.03-.03-.03l-1.6-.2h0s-.03.01-.03.02c0,.02,0,.03.02.03l1.61.21h0Z"/>
            </g>
            <path class="cls-23" d="m74.59,95.88c-.53.02-1.27.07-1.51.12-.39.09-.38.62-1.39.72-1.01.09-3.88.5-4.08.36-.2-.14-.15-.59-.15-.59h-1.22c-.18.62-.05,1.32.75,1.41,1.02.11,3.44-.3,3.44-.3h0c.25-.04.46-.07.64-.09.78-.13.44-.06.88-.15l1-.19c.27.1,1.13-.09,1.42-.39.13-.13.19-.49.22-.89Z"/>
            <g class="cls-29">
              <path class="cls-23" d="m68.69,95.33s1.58-.25,2.81-.02c.04.02-.96-.65-2.81.02Z"/>
            </g>
            <polygon class="cls-21" points="56.15 84.98 56.26 84.98 54.76 45.51 54.65 45.52 56.15 84.98"/>
            <polygon class="cls-21" points="72.64 84.98 72.75 84.98 70.95 44.92 70.84 44.92 72.64 84.98"/>
            <path class="cls-6" d="m58.96,5.38s-.14,1.89-.61,3.08c-.46,1.19-.4,2.48.17,3.57.11.26,1.18.36,1.31.23.13-.12,0-.53.16-.67.16-.14.16.4.23.51.08.12-.1.34.52.23.62-.11.35-.26.93-.05.58.21,3.28.7,4.06.45.79-.25.72-.46.98-.29.26.17.52.14.54-.11.02-.25.02-.55.18-.44.16.11-.11.65.08.73.2.08.44-.02.82-.07.38-.05.63-.7.36-1.36-.26-.65-.61-.74-.54-1.52.06-.78-.04-1.42-.21-1.81-.17-.39-8.99-2.5-8.99-2.5Z"/>
            <path class="cls-9" d="m65.7,13.57l.12-3.68-3.66-.22-.34,3.74c-1.41.55-4.39,1.12-4.36,1.1.93,4.25,3.89,5.84,4.82,5.9.92.06,1.1.07,1.1.07h0s.18,0,1.11.07c.93.06,3.65-1.28,5.1-5.38.02.02-1.92-.59-3.89-1.6Z"/>
            <path class="cls-9" d="m65.76,11.25c-.11,1.85-.95,2.89-2.05,2.83-.9-.06-1.81-1.11-1.69-2.96.11-1.85.87-3.4,2.09-3.33,1.22.07,1.76,1.61,1.65,3.47Z"/>
            <path class="cls-7" d="m70.06,25.21c.35-.61,1.71-2.09,1.27-3.94-.44-1.85-.6-2.87-.5-3.29.1-.42.41-2.38.41-2.38,0,0-5.28-2-5.29-2.01.03-.39,0-.67.01-.73-3.3,1.04-4.39-.32-4.39-.32-.16.17-.11.52-.14.53-.08.23.08.45.08.45-.82.12-3.11.66-3.82.92,0,0-.35,2.63-.69,3.76-.35,1.12-.85,2.97-.57,4.27.2.94.74,3.11.99,3.75,0,0,.28.55.21,1.78-.08,1.54-1.36,4.98-1.36,4.98l12.88.8s-.1-5.28.04-6.26c.14-.98.5-1.71.86-2.32Z"/>
            <path class="cls-13" d="m72.2,29.85c.03-1.34-.58-4.95-.49-7.45.08-2.5.86-6.19.86-6.19-.94-.91-4.95-2.1-4.95-2.1,0,0-5.6,3.41-6.54,7.22-1.07-3.96-.08-7.71-.08-7.71,0,0-2.23.05-3.28.83,0,0-1.67,4.75-1.9,7.24-.23,2.49-.35,5.78-.49,7.11,0,0-2.41,14.42-1.84,15.88.48,1.22,17.39,1.49,17.79,1.4h0l.78.13c.36-.08.59-.26.77-.49,2.34-3.08-.62-15.87-.62-15.87Z"/>
            <path class="cls-20" d="m68.51,14.3s-1.61,3.89-2.06,9.09c-.45,5.21,1.73,12.39,5.59,14.08,0,.01-.31-1.84-.65-2.26-1.49-.72-4.09-6.7-3.56-10.37.57-3.95,2.12-10.09,2.12-10.09,0,0-.71-.43-1.44-.45Z"/>
            <path class="cls-22" d="m68.65,20.39c-1.18.09-4.99-.06-6.19-.1l-.08,1.84c2.01-.01,6.19,0,6.19,0,0,0,.25-1.68.08-1.74Z"/>
            <path class="cls-22" d="m57.22,19.85s-.34,1.67-.31,1.71c.91.29,2.11.45,3.33.53l.09-1.91c-1.99-.15-3.11-.32-3.11-.32Z"/>
            <path class="cls-20" d="m59.59,20.49l-.04.83s1.99.38,3.19.15c.01,0,.03-.75.03-.75,0,0-1.93.19-3.19-.23Z"/>
            <path class="cls-22" d="m70.5,14.83s-1.79,5.94-2.16,9.1c-.05,0-2.15-.1-2.15-.1,0,0-.41-2.6,2.06-9.61,0,0,1.46-.06,2.25.61Z"/>
            <g class="cls-28">
              <path class="cls-23" d="m56.01,35.47s-.04,2.27-2.27,4.64c-.04.03,2.82-.73,2.27-4.64Z"/>
            </g>
            <g class="cls-28">
              <path class="cls-23" d="m64.16,36.35s.18,2.27,3.37,4.5c.05.02-3.91-.57-3.37-4.5Z"/>
            </g>
            <path class="cls-20" d="m59.43,14.02s-2.52,4.28-2.73,7.37c-.21,3.09-1.83,10.95-2.24,12.87-.02.11-.96-13.64,2.94-19.68,0,0,.35-.67,2.02-.56Z"/>
            <path class="cls-22" d="m57.1,14.46s-2.21,4.64-2.49,8.66c.03-.05,2.19.14,2.19.14,0,0,.37-5.09,3.09-9.5,0,0-1.68,0-2.79.71Z"/>
            <path class="cls-9" d="m67.5,5.3c-.12,1.41-.25,2.16-.75,3.34-.56,1.3-3.15,3.65-4.7,3.6-1.56-.05-2.3-2.49-2.66-3.92-.32-1.26-.19-2.07-.08-3.5.29-3.58.33-4.33,4.34-4,4.5.37,4.15.89,3.85,4.47Z"/>
            <path class="cls-25" d="m60.38,7.36c-.01.15-.1.26-.2.25-.1,0-.16-.13-.15-.28.01-.15.1-.26.19-.25.1,0,.17.13.15.28Z"/>
            <path class="cls-25" d="m63.19,7.63c-.01.15-.1.26-.2.25-.1,0-.16-.13-.15-.28.01-.15.1-.26.19-.25.1,0,.17.13.16.28Z"/>
            <path class="cls-9" d="m60.85,8.31c-.03.3-.29.52-.59.5-.3-.02-.53-.29-.5-.59.02-.3.29-.52.59-.5.3.02.52.29.5.59Z"/>
            <path class="cls-9" d="m63.77,8.5c-.02.3-.29.52-.59.5-.3-.03-.53-.29-.5-.59.03-.3.29-.52.59-.5.3.03.53.29.5.59Z"/>
            <path class="cls-6" d="m62.44,5.96s-.12.1-.02.22c.1.12.47.02.8.04.33.02.48.12.64.15.16.03.01-.2-.15-.3-.23-.15-1.05-.28-1.27-.11Z"/>
            <path class="cls-6" d="m61,5.99s.1.12-.01.21c-.12.1-.47-.06-.8-.09-.33-.04-.49.04-.66.05-.16,0,.02-.2.2-.27.26-.11,1.08-.1,1.27.11Z"/>
            <path class="cls-10" d="m61.47,9.36c.2,0,.49-.16.56-.2.03-.01.04-.05.02-.07-.01-.03-.05-.03-.08-.02-.18.11-.48.23-.57.17,0,0-.03-.02-.02-.08.03-.36.15-1.24.15-1.24,0-.03-.02-.06-.05-.06h0s-.05.02-.05.05c0,0-.12.89-.15,1.25,0,.11.04.16.07.18.03.02.08.03.12.03Z"/>
            <path class="cls-5" d="m60.48,9.96l2.42.16s-.97.85-2.42-.16Z"/>
            <path class="cls-8" d="m62.9,10.12l-.32-.02c-.17.1-.43.31-.91.28-.49-.04-.82-.3-.95-.4h-.24c1.25,1.58,2.42.14,2.42.14Z"/>
            <path class="cls-8" d="m60.48,9.96c-.05.02,1.13.15,2.42.16,0,0-.45-.26-1.2-.29-.35-.01-.75-.03-1.22.13Z"/>
            <path class="cls-13" d="m72.44,16.03s1.95.75,2.13,1.83c.21,1.26,2.87,13.26,3.72,16.77.85,3.51,1.28,4.54,1.28,4.54,0,0-5.51,2.51-7.59,2.34-.55-.15-2.72-16.97-2.72-16.97,0,0,1.7-7.22,3.18-8.5Z"/>
            <path class="cls-23" d="m78.94,37.17h0c.42,1.5.62,2,.62,2,0,0-5.51,2.51-7.59,2.34-.12-.03-.3-.73-.51-1.82,1.69.21,7.48-2.52,7.48-2.52Z"/>
            <rect class="cls-21" x="62.08" y="46.11" width=".11" height="2.65" transform="translate(-9.16 15.37) rotate(-13.14)"/>
            <path class="cls-6" d="m68.54,3.48c-.12-1.09-1.02-1.94-2.46-2.82-1.43-.87-2.74-.29-2.85-.3-2.84-.95-4.28,2.21-4.35,2.96-.06.75-.81,3.08-.04,3.13.02,0,.04,0,.07,0,.04,1.07.22,2.99.54,2.17-.25-1.73-.05-3,.12-3.68.77-.11,1.99-.47,2.4-.8,1.12-.93.75-1.23.75-1.23,1.17.1.42,1.22,1.82,2.25,1.18.87.9,8.19,2.89,4.56.15-.28,1.21-5.38,1.1-6.24Z"/>
            <path class="cls-9" d="m65.17,7.29c-.26.79-.11.99.28,1.12.39.13.88.13,1.14-.65.26-.79.16-1.53-.24-1.66-.39-.13-.92.4-1.18,1.19Z"/>
            <path class="cls-6" d="m65.73,6.02s.31,2.94-.19,3.64c-.5.7-.54-.04-.54-.04,0,0,.27-3.08.07-3.72-.19-.64.66.12.66.12Z"/>
            <path class="cls-4" d="m66.01,24.26s7.98-3.37,9.53-4.51c1.55-1.14,2.18-3.27,1.35-4.01,0,0-.9-.42-2.09-.57-1.18-.15-7.75,2.41-9.14,2.9-1.38.48-3.01.81-4.39,1.49-1.38.68-2.39,1.55-2.23,2.84.16,1.3.66,2.31,1.65,2.6.99.29,4.88-.55,5.32-.74Z"/>
            <path class="cls-2" d="m77.02,25.15l1.13-11.46h17.49s2.96,6.15,2.18,10.66c0,.21,4.08,14.3,1.23,21.46-1.45,2.88-9.59,2.87-9.59,2.87l-12.43-23.53Z"/>
            <path class="cls-25" d="m97.7,24.35s-1.9,1.44-6.35.21c.13,0,0,.7,0,.7,0,0,3.61,2.37,6.95,1.15.04.14-.6-2.06-.6-2.06Z"/>
            <path class="cls-9" d="m44.63,23.11s-2.27-.6-2.62-.69c-.35-.09-1.6.29-1.96.42-.35.13-2.74.35-2.92.65-.18.3-.04.42.24.44.28.03,2.82.15,2.82.15,0,0,.09.32.3.5.21.18.17.45.48.65.31.2.67.5.93.58.26.08,2.11-.75,2.61-.83.49-.08,2.48.05,2.48.05l-.24-2.21-2.12.29Z"/>
            <path class="cls-4" d="m63.55,20.79s.26-1.78-1.48-1.57c-2.38.28-6.64,1.04-8.67,1.46-3,.63-6.91,1.73-7.25,1.8-.35.07-.56,1.11-.21,1.68.35.57.12.84.35,1.39.23.55,5.55.24,7.63.03,2.08-.21,5.8-.2,8.41-.59,1.36-.2,2.3-2.88,1.24-4.2Z"/>
            <g>
              <path class="cls-7" d="m98.4,14.63h-26.2c-.94,0-.94-6.23,0-6.23h26.2c.85,0,.85,6.23,0,6.23Z"/>
              <rect class="cls-2" x="77.87" y="8.4" width=".28" height="6.23"/>
              <rect class="cls-2" x="91.98" y="8.4" width=".28" height="6.23"/>
            </g>
            <polygon class="cls-3" points="90.15 84.31 85.93 84.47 86.56 92.14 90.16 92.01 90.15 84.31"/>
            <polygon class="cls-3" points="73 84.39 77.22 84.39 76.88 92.08 73.28 92.08 73 84.39"/>
            <path class="cls-1" d="m78.21,14c-.15-.08-.5-.39-1.41-.08-.91.32-1.1,1.31-1.1,1.31l9.07-.06s-.82-2.27-2.88-1.36c-2.07.91-3.67.2-3.67.2Z"/>
            <path class="cls-9" d="m82.43,14.32h0v-3.45s-4.56,0-4.56,0v3.59h0c-1.75.23-4.9,1.28-4.87,1.26,1.15,4.02,5.25,5.45,6.14,5.45.89,0,1.06,0,1.06,0h0s.17,0,1.06,0c.89,0,5.06-1.45,6.2-5.47.03.02-2.99-1.07-5.05-1.39Z"/>
            <g class="cls-32">
              <path class="cls-9" d="m82.49,12.17c0,1.78-.95,2.83-2.3,2.83-1.12,0-2.31-.96-2.31-2.74,0-1.78.81-3.32,2.32-3.32,1.51,0,2.29,1.44,2.3,3.23Z"/>
            </g>
            <path class="cls-9" d="m84.23,6.31c0,1.36-.58,2.02-.96,3.2-.43,1.29-1.79,3.89-3.7,3.89s-2.77-2.15-3.06-3.54c-.27-1.27-.16-1.97-.16-3.34,0-3.45-.03-4.32,3.84-4.32,4.34,0,4.04.67,4.04,4.12Z"/>
            <path class="cls-25" d="m77.88,13.6s1.68,1.14,4.55.04c0,.05.03.3.03.65.01.01.99.18,1.1.26,0,.01-3.76,3.55-4.78,3.31-1.02-.25-2.09-1.64-2.27-3.11.25-.07.69-.21,1.37-.27,0,0-.12-.14-.06-.35.02-.01-.07-.36.06-.52Z"/>
            <path class="cls-25" d="m77.26,8.04c0,.14-.07.26-.17.26-.09,0-.17-.11-.17-.26s.08-.26.17-.26c.09,0,.17.12.17.26Z"/>
            <path class="cls-25" d="m80.09,8.04c0,.14-.08.26-.17.26-.09,0-.17-.11-.17-.26,0-.14.08-.26.17-.26.09,0,.17.12.17.26Z"/>
            <g class="cls-31">
              <path class="cls-9" d="m77.74,9.25c0,.29-.23.53-.52.53s-.53-.23-.53-.53.24-.52.53-.52c.29,0,.53.23.53.52Z"/>
            </g>
            <g class="cls-31">
              <path class="cls-9" d="m80.58,9.19c0,.29-.23.53-.53.53-.29,0-.52-.23-.52-.52,0-.29.23-.52.52-.52.29,0,.53.23.53.52Z"/>
            </g>
            <path class="cls-22" d="m71.42,40.22s-.13,4.57-.46,7.62c-.33,3.06,1.25,39.94,1.25,39.94h6.01l.53-36.45c0-.31.26-.57.58-.57h0c.31,0,.57.25.58.57l4.63,36.45h6.24s-1.07-38.73-1.1-40.1c-.02-1.37.31-6.05-.1-7.37-.41-1.32-18.16-.09-18.16-.09Z"/>
            <path class="cls-10" d="m78.26,9.98s0,0-.01,0c-.01,0-.31-.09-.36-.36-.05-.26.29-1.59.33-1.73,0-.02.03-.04.06-.03.02,0,.04.03.03.06-.1.4-.37,1.5-.33,1.69.04.22.29.29.29.29.03,0,.04.03.03.06,0,.02-.02.03-.05.03Z"/>
            <path class="cls-1" d="m76.59,14.71s.26,2.3,2.32,2.98c.96.32,4.65-3.17,4.65-3.17,0,0,3,.74,3.42.84.41.1,1.51.43,2.04.83.53.4.38,6.39,0,9.22-.12,2.47,0,7.4.09,9.1.17,3.5,1.71,10.01.79,11.41-.7,1.06-14.22-.89-18.85-.04-1.23-1.35.96-9.47.85-11.89-.11-2.42.13-7.64.54-10.48.41-2.84-.53-6.99-.54-7.5,0-.51,4.14-1.19,4.7-1.31Z"/>
            <path class="cls-11" d="m86.9,26.47s-.05-.02-.05-.05c-.02-4.21,1.5-8.26,1.51-8.3.01-.03.04-.04.07-.03.03.01.04.04.03.07-.01.04-1.53,4.08-1.5,8.27,0,.03-.02.05-.05.05h0Z"/>
            <path class="cls-15" d="m75.39,3.52s-1,.45-.31,1.74c.69,1.29,1.84.52,2.28,0,.06-.03.29.76,1.38.71,1.09-.05,1.27-1.71,1.85-1.74.58-.03.67.51.67.51,0,0,.47-.38.94,0,.47.38-.28.93.26,1.7.54.77,2.87-.31,2.8-1.46-.07-1.16-.4-2.16-1.69-2.88-.65-.36-1.77-.46-1.77-.46,0,0-.91-1.44-2.81-1.61-1.9-.18-2.54.43-3.09,1.09-.52.63-1.32,1.1-.52,2.4Z"/>
            <path class="cls-15" d="m78.15,6.37s-.04-.15-.27-.13c-.22.02-.86-.07-1.05.06-.19.13-.19.26,0,.36.19.09.4.13.69.12.29-.01.7-.16.63-.41Z"/>
            <path class="cls-15" d="m79.83,6.37s.05-.15.27-.13c.22.02.86-.07,1.05.07.19.13.19.26,0,.36-.19.09-.4.13-.69.12-.29-.01-.7-.16-.63-.41Z"/>
            <path class="cls-15" d="m75.58,5.36s-.01,1.47.14,2.12c.26.47.26.88.51.88.25,0,.39-.3.26-.79-.12-.49.53-.89-.04-1.84-.56-.95-.88-.36-.88-.36Z"/>
            <path class="cls-15" d="m85.21,5.18s-.29,1.6-.44,2.24c-.26.47-.86.73-1.11.73-.25,0-.39-.3-.26-.79.12-.49-.53-.9.03-1.84.56-.95,1.79-.34,1.79-.34Z"/>
            <path class="cls-15" d="m76.24,7.71s.07.64.07,1.88c0,.89,0,3.31,1.57,3.87,1.56.56,3.45-.02,4.07-.88.62-.86,1.75-3,1.82-3.2.19-.62-.03-1.66.19-2.02.04-.31-.68-.86-.68-.86-.02-.01-.78,3.48-1.05,4.08-.3.66-2.71-.64-4.21-.31-1.02.23-1.22.44-1.44-.36-.43-1.51-.13-2.23-.13-2.23l-.2.02Z"/>
            <path class="cls-9" d="m77.35,10.88l.75-.11c.15-.02.31-.02.47,0l.84.11c.06,0,.1.06.06.1-.12.17-.44.49-1.12.49-.61,0-.93-.32-1.06-.49-.03-.04,0-.1.06-.1Z"/>
            <g>
              <path class="cls-25" d="m82.56,21.3c-1.31.14-2.7.21-4.03.23v1.9c2.23-.11,4.03-.33,4.03-.33,0,0,.19-1.74,0-1.79Z"/>
              <path class="cls-25" d="m72.21,21.3s.05,1.75.09,1.79c.95.26,2.19.36,3.45.39v-1.97c-2.05-.06-3.54-.21-3.54-.21Z"/>
            </g>
            <path class="cls-2" d="m75.62,22.03v.86s2.06.3,3.29,0c.01,0,0-.77,0-.77,0,0-1.97.28-3.29-.09Z"/>
            <g>
              <path class="cls-21" d="m79.28,50.8s-.75-1.76-.38-4.99h.1c-.36,3.21.37,4.93.38,4.95l-.1.04Z"/>
              <path class="cls-21" d="m78.83,48.88s-.79-.37-.92-1.33c-.13-.94-.14-1.72-.14-1.72h.1s.01.78.14,1.71c.13.91.85,1.25.86,1.25l-.04.09Z"/>
            </g>
            <path class="cls-21" d="m89.51,51.09s-1.4-.73-1.83-2.11c-.44-1.37-.42-2.54-.42-2.55h.1s-.01,1.17.42,2.51c.42,1.34,1.77,2.04,1.78,2.05l-.05.09Z"/>
            <path class="cls-22" d="m86.37,35.47s-.17.42-.08.77c.03-.05-.15.03-.15.03,0,0-.05-.55.12-.9,0,0,.11.1.11.1Z"/>
            <g>
              <path class="cls-2" d="m85.43,14.94s-2.57,4.07-2.78,9.44c-.22,5.37,2.7,12.21,7.03,14.21,0,.01.31-1.35-.38-2.04-.05.03-5.22-6.64-5.16-10.75.05-4.11,2.79-10.47,2.79-10.47,0,0-.75-.41-1.5-.39Z"/>
              <path class="cls-25" d="m87.18,15.45s-2.18,4.41-2.84,9.4h-2.21s0-4.74,3.02-9.98c0,0,1.18-.08,2.03.57Z"/>
              <path class="cls-17" d="m85.93,35.48c-.92,0-1.67-.86-1.67-1.91s.75-1.91,1.67-1.91c.43,0,.84.19,1.16.54.33.36.51.85.51,1.37,0,.29-.05.56-.16.82-.02.05-.08.08-.13.06-.05-.02-.08-.08-.06-.13.1-.23.15-.48.15-.74,0-.47-.16-.91-.45-1.24-.27-.3-.63-.47-1-.47-.8,0-1.46.77-1.46,1.71s.66,1.71,1.46,1.71c.05,0,.1.05.1.1s-.05.1-.1.1Z"/>
              <path class="cls-22" d="m83.44,36.47c-.04.12-.31,3.29-.14,4.93.17,1.64,3.96,1.06,4.5.67.55-.39-.25-5.15-.7-5.72-.44-.56-3.3-.91-3.67.11Z"/>
              <path class="cls-22" d="m85.85,36.21s.12-.83-.24-1.17c-.18-.24-.54-.1-.54-.1,0,0,.06.09.1.1.04.02.2-.1.34.06.13.16.08.84.08.84l.27.26Z"/>
              <path class="cls-21" d="m83.43,36.54s.67,2.04,1.86,2.22c1.19.18,1.98-1.48,1.96-2.11-.01-.28-.17-.77-1.63-.83-1.46-.05-1.9.06-2.19.72Z"/>
              <path class="cls-1" d="m85.59,38.19c0,.07-.05.12-.12.12-.07,0-.12-.05-.12-.12s.05-.12.12-.12c.07,0,.12.06.12.12Z"/>
            </g>
            <g>
              <g class="cls-26">
                <path class="cls-2" d="m72.67,25.6s-.33,4.43-.33,6.17c-.03.16,3.23.58,4.78.58,1.67,0,3.97-.39,3.97-.39l-.53-6.19s-1.61.26-3.84.22c-1.29-.03-4.04-.39-4.04-.39Z"/>
              </g>
              <path class="cls-1" d="m72.55,27.31s4.89.62,8.12-.14c0,0,.02.27.02.27,0,0-2.65.64-8.16.12,0,0,.02-.24.02-.24Z"/>
              <path class="cls-1" d="m72.36,28.72s5.13.62,8.51-.15c0,0,.02.27.02.27,0,0-2.77.64-8.55.11,0,0,.01-.24.01-.24Z"/>
              <path class="cls-1" d="m72.22,29.96s5.29.62,8.78-.15c0,0,.03.27.03.27,0,0-2.86.64-8.82.11,0,0,.01-.24.01-.24Z"/>
            </g>
            <g>
              <path class="cls-18" d="m77.22,96.62l-.93.21-.28.79.78-.11c.49-.06.42-.89.42-.89Z"/>
              <path class="cls-18" d="m69.84,96.54s.06,1.28.58,1.41c.52.13,4.4.03,4.89.03s1.12-.5,1.1-1.01c-.02-.41-6.57-.43-6.57-.43Z"/>
              <path class="cls-25" d="m73.17,89.55s.11,3.33-.1,3.78c-.22.44-1.05,1.57-1.11,2.07-.06.5,5.29.35,5.29.35,0,0,.22-1.11-.12-2.18-.29-.93-.13-4.34-.13-4.34-1.33.45-2.66.59-3.83.33Z"/>
              <path class="cls-25" d="m70.93,97.25l3.01-.05c.15,0,2.01-.08,2.01-.49,0-.26-.12-.91-.55-1.19-.98-.62-4.14-.69-5.06-.01-.52.39-.5.75-.5,1.03,0,.25.14.69,1.09.71Z"/>
              <path class="cls-25" d="m77.31,95.1s.04,1.52-.22,1.68c-.27.16-1.7.15-1.72.19-.02.04-.17-1.32-.12-1.32s2.05-.55,2.05-.55Z"/>
              <path class="cls-2" d="m72.31,94.57s.36.82,1.53.46c.73-.4.86-1.67.94-2.11.09-.44.17-1.66.19-2.06.03-.41.66-1.09,2-1.01.01.02.02-.62.02-.62,0,0-1.92.61-3.83.33,0,0-.08,2.27-.17,2.95-.09.67-.26,1.39-.69,2.08Z"/>
              <path class="cls-18" d="m73.2,91.12s-.04-.01-.04-.03c0-.02,0-.05.03-.05l1.69-.46s.05,0,.05.03c0,.02,0,.05-.03.06l-1.69.46s0,0-.01,0Z"/>
              <path class="cls-18" d="m74.69,91.29s-.01,0-.02,0l-1.49-.63s-.03-.04-.02-.06c.01-.02.03-.03.06-.02l1.49.63s.04.03.02.06c0,.02-.02.03-.04.03Z"/>
              <path class="cls-18" d="m73.2,91.72s-.04-.01-.04-.03c0-.02,0-.05.03-.05l1.69-.46s.05,0,.05.03c0,.02,0,.05-.03.05l-1.69.46s0,0-.01,0Z"/>
              <path class="cls-18" d="m74.69,91.89s-.01,0-.02,0l-1.49-.63s-.03-.04-.02-.06c.01-.02.03-.03.06-.02l1.49.63s.04.04.02.06c0,.02-.02.03-.04.03Z"/>
              <path class="cls-18" d="m73.1,92.37s-.04-.01-.04-.03c0-.02,0-.05.03-.06l1.69-.46s.05,0,.05.03c0,.02,0,.05-.03.05l-1.69.46s0,0-.01,0Z"/>
              <path class="cls-18" d="m74.59,92.54s-.01,0-.02,0l-1.49-.63s-.03-.03-.02-.06c.01-.02.04-.03.06-.02l1.49.63s.03.04.02.06c0,.02-.02.03-.04.03Z"/>
              <path class="cls-18" d="m73.1,92.96s-.04-.01-.04-.03c0-.02,0-.05.03-.05l1.69-.46s.05,0,.05.03c0,.02,0,.05-.03.05l-1.69.46s0,0-.01,0Z"/>
              <path class="cls-18" d="m74.59,93.13s-.01,0-.02,0l-1.49-.63s-.03-.04-.02-.06c.01-.02.04-.03.06-.03l1.49.63s.03.04.02.06c0,.02-.02.03-.04.03Z"/>
              <path class="cls-18" d="m73,93.59s-.04-.01-.04-.03c0-.03,0-.05.03-.06l1.69-.45s.05,0,.05.03c0,.02,0,.05-.03.05l-1.69.46s0,0-.01,0Z"/>
              <path class="cls-18" d="m74.49,93.76s-.01,0-.02,0l-1.49-.63s-.03-.04-.02-.06c0-.02.04-.04.06-.03l1.49.63s.03.04.02.06c0,.02-.02.03-.04.03Z"/>
              <path class="cls-18" d="m72.65,94.06s-.04-.01-.04-.04c0-.02.01-.05.03-.05l1.84-.3s.05.01.05.04c0,.02-.01.05-.04.05l-1.84.3s0,0,0,0Z"/>
              <path class="cls-18" d="m74.28,94.39s-.02,0-.02,0l-1.36-.81s-.03-.04-.01-.06c.01-.02.04-.03.06-.01l1.36.81s.03.04.02.06c0,.01-.02.02-.04.02Z"/>
              <path class="cls-18" d="m71.36,97.46s-.39-.52-.33-.84c.04-.23-1.23-.34-1.23-.34,0,0-.12.89.28,1.34.55-.04,1.28-.16,1.28-.16Z"/>
              <path class="cls-2" d="m70.23,95.6s1.03.08,1.29.44c.26.36,1.27.5,1.58.41.3-.09-.2-.68-.52-.84-.31-.17-.28-.52-.62-.54-.35-.02-1.24.05-1.73.54Z"/>
            </g>
            <g>
              <path class="cls-18" d="m90.68,96.54l-.92.24-.25.8.78-.14c.49-.08.39-.9.39-.9Z"/>
              <path class="cls-18" d="m83.3,96.73s.11,1.28.63,1.38c.52.11,4.4-.14,4.89-.16.5-.02,1.1-.54,1.06-1.05-.04-.41-6.58-.18-6.58-.18Z"/>
              <path class="cls-25" d="m86.37,89.62s.24,3.33.04,3.78c-.2.45-.99,1.6-1.03,2.11-.04.51,5.29.15,5.29.15,0,0,.17-1.12-.2-2.17-.33-.92-.29-4.33-.29-4.33-1.32.5-2.63.69-3.81.47Z"/>
              <path class="cls-25" d="m84.41,97.4l3.01-.16c.15,0,2.01-.16,1.99-.57-.01-.26-.16-.91-.6-1.17-1.01-.58-4.17-.53-5.05.18-.5.4-.47.76-.47,1.05,0,.25.16.68,1.11.67Z"/>
              <path class="cls-25" d="m90.71,95.01s.1,1.52-.16,1.69c-.26.17-1.69.22-1.71.25-.01.04-.22-1.31-.17-1.32.05,0,2.03-.63,2.03-.63Z"/>
              <path class="cls-2" d="m85.7,94.67s.39.81,1.55.4c.71-.42.8-1.7.86-2.15.07-.44.1-1.66.11-2.07.01-.41.61-1.11,1.96-1.09.02.02,0-.62,0-.62,0,0-1.89.69-3.81.47,0,0,.01,2.27-.05,2.95-.07.67-.21,1.4-.61,2.1Z"/>
              <path class="cls-18" d="m86.45,91.19s-.03-.01-.04-.03c0-.02,0-.05.03-.05l1.67-.52s.05,0,.06.03c0,.02,0,.05-.03.06l-1.67.52s0,0-.02,0Z"/>
              <path class="cls-18" d="m87.95,91.31s-.01,0-.02,0l-1.52-.57s-.03-.04-.02-.06c0-.02.03-.04.06-.03l1.51.57s.04.03.03.06c0,.02-.02.03-.04.03Z"/>
              <path class="cls-18" d="m86.48,91.79s-.04-.01-.04-.03c0-.02,0-.05.03-.06l1.67-.52s.05,0,.05.03c0,.02,0,.05-.03.06l-1.67.52s0,0-.01,0Z"/>
              <path class="cls-18" d="m87.97,91.9s-.01,0-.02,0l-1.51-.57s-.04-.04-.03-.06c0-.02.03-.04.06-.03l1.52.57s.03.03.02.06c0,.02-.02.03-.04.03Z"/>
              <path class="cls-18" d="m86.4,92.44s-.04-.01-.04-.03c0-.02,0-.05.03-.06l1.67-.52s.05,0,.06.03c0,.02,0,.05-.03.06l-1.67.52s0,0-.01,0Z"/>
              <path class="cls-18" d="m87.9,92.55s-.01,0-.02,0l-1.51-.57s-.04-.04-.03-.06c0-.02.04-.03.06-.03l1.51.57s.04.04.03.06c0,.02-.02.03-.04.03Z"/>
              <path class="cls-18" d="m86.43,93.03s-.04-.01-.04-.03c0-.02,0-.05.03-.05l1.67-.52s.05,0,.06.03c0,.02,0,.05-.03.05l-1.67.52s-.01,0-.01,0Z"/>
              <path class="cls-18" d="m87.92,93.15s-.01,0-.01,0l-1.52-.57s-.04-.04-.03-.06c0-.02.04-.04.06-.03l1.51.57s.03.04.03.06c0,.02-.02.03-.04.03Z"/>
              <path class="cls-18" d="m86.35,93.66s-.04-.01-.04-.03c0-.02,0-.05.03-.06l1.67-.52s.05,0,.06.03c0,.02,0,.05-.03.06l-1.67.52s0,0-.01,0Z"/>
              <path class="cls-18" d="m87.85,93.78s-.01,0-.02,0l-1.51-.57s-.04-.03-.03-.06c0-.03.03-.04.06-.03l1.51.57s.04.04.03.06c0,.02-.02.03-.04.03Z"/>
              <path class="cls-18" d="m86.02,94.15s-.04-.02-.04-.04c0-.02.01-.05.04-.05l1.83-.37s.05.01.05.04c0,.02-.01.05-.03.05l-1.83.37s0,0,0,0Z"/>
              <path class="cls-18" d="m87.66,94.42s-.02,0-.02,0l-1.39-.75s-.03-.04-.02-.06c.01-.02.04-.03.06-.02l1.39.75s.03.04.02.06c0,.01-.02.02-.04.02Z"/>
              <path class="cls-18" d="m84.86,97.6s-.42-.51-.36-.83c.03-.23-1.24-.29-1.24-.29,0,0-.09.9.33,1.33.55-.06,1.27-.21,1.27-.21Z"/>
              <path class="cls-2" d="m83.66,95.78s1.03.04,1.31.39c.28.35,1.3.45,1.59.35.3-.1-.23-.67-.55-.83-.32-.16-.3-.51-.65-.52-.35,0-1.24.1-1.71.61Z"/>
            </g>
            <path class="cls-4" d="m86.63,29.64s-.57-8.64-.24-10.54c.32-1.9,1.55-3.4,2.58-2.98,0,0,1.17.6,1.84,1.59.66.99,1.75,7.9,1.94,9.36.19,1.45.3,3.45.32,4.99.01,1.54-.42,2.54-1.65,2.98-1.23.44-2.36.44-3.06-.31-.7-.76-1.7-4.61-1.72-5.09Z"/>
            <path class="cls-9" d="m83.07,8.5c-.19.78-.03.96.36,1.05.39.09.85.06,1.04-.72.19-.78.03-1.48-.36-1.57-.39-.09-.85.46-1.04,1.24Z"/>
            <path class="cls-2" d="m74.29,15.16s-1.63,3.19-1.88,5.65c-.25,2.46-.82,16.17-.82,16.17l-.26,1.61s-.5-1.95-.66-4.41c-.16-2.46-.3-9.32.24-12.16.54-2.83.97-6.17,1.49-6.52.52-.35,1.48-.59,1.88-.35Z"/>
            <path class="cls-25" d="m71.99,15.48s-1.48,5.58-1.47,8.61c-.03.05,1.88,0,1.88,0,0,0,.25-4.05.77-5.4.53-1.34,1.23-3.21,1.3-3.57.07-.36-2.01-.28-2.49.36Z"/>
            <path class="cls-9" d="m89.39,46.46l.14,2.55,1.52.03.05-2.28s-2.07-.18-1.71-.31Z"/>
            <path class="cls-4" d="m91.59,30.26s1.48.22,1.51,1.97c.04,1.75.03,5.81-.15,8.1-.24,3.05-.87,7.07-.89,7.42-.03.35-1.04.69-1.64.42-.61-.27-.84-.01-1.42-.17-.58-.16-.92-5.48-.97-7.57-.05-2.09-1.7-10.18-1.17-11.45.53-1.27,3.3.41,4.74,1.29Z"/>
            <path class="cls-1" d="m91.59,50.02l-12.98,2.51.4,2.42,16.09-3.02s1.06-1.47-.35-2.4c-.06.01-3.16.5-3.16.5Z"/>
            <path class="cls-9" d="m88.85,49.4s-.79,1.04-.76,1.31l.52-.14c.21-.23.35-.06.42-.12.08-.06.33.93.36,1.36.02.26-.17.75-.31,1.09-.14.34.28.64.55.39,0,0,0,0,.01,0,.16.01.52.14.68-.21.03,0,.35.18.62-.13.04-.02.4.05.55-.26.15-.3.28-1.09.31-1.49.02-.29-.27-1.64-.53-2.06-.26-.41-1.2-.83-1.51-.66-.31.16-.8.62-.91.92Z"/>
            <path class="cls-16" d="m78.62,52.51s-.5.89.4,2.42c.3.24.48-2.57-.4-2.42Z"/>
            <path class="cls-9" d="m56.58,15.67s1.02-.67,1.7,0c.68.67.23.85.23.85,0,0,.05.35-.18.42,0,0,.13.33-.2.53-.03.07-.52-.66-1.39-.3-.87.36-1.36-.25-1.12-.75.24-.49.95-.75.95-.75Z"/>
            <polygon class="cls-21" points="72.06 85.57 72.17 85.57 71.06 47.39 70.95 47.39 72.06 85.57"/>
          </g>
          <g>
            <g>
              <rect class="cls-24" x="37.05" y="37.18" width=".54" height="62.35" transform="translate(74.64 136.7) rotate(180)"/>
              <polygon class="cls-12" points="48.73 38.25 48.73 45.23 27.06 45.23 23.21 41.74 27.06 38.25 48.73 38.25"/>
            </g>
            <path class="cls-5" d="m45.5,40.12c.31.48,1.74,2.58.19,2.43-1.39-.13-2.88-1.36-3.81-2.31-.09-.09,0-.26.13-.22.61.19.98.63,1.22,1.21.12.29.37.91.03,1.17-.41.31-1.22-.28-1.54-.47-.71-.42-1.32-.94-1.79-1.63-.08-.12.1-.26.2-.16.68.7,1.41,2.97-.34,2.48-.54-.15-3.73-1.72-2.95-2.49.06-.06.16-.04.2.03.28.41,1.65,2.5.37,2.56-.61.03-1.44-.53-1.93-.82-.76-.43-1.46-.95-2.11-1.53-.11-.1.03-.29.16-.21.52.36,1.69,2.12.61,2.49-.4.14-1.06-.31-1.38-.5-.7-.42-1.28-.98-1.78-1.63.08-.04.15-.09.22-.13.35.49,1.46,2.51.23,2.65-.51.06-1.29-.42-1.7-.68-.59-.38-1.08-.87-1.5-1.44-.1-.14.13-.27.22-.13.53.71,1.19,1.3,2,1.68.23.11.48.2.72.27.45-.28.59-.62.42-1.01-.04-.43-.37-.87-.62-1.21-.1-.14.13-.26.22-.13.5.65,1.09,1.21,1.8,1.61.35.2,1.03.69,1.25-.07.17-.57-.44-1.26-.85-1.54.05-.07.1-.14.16-.2.67.6,1.4,1.13,2.19,1.57.31.17,1.01.66,1.34.63.19-.14.37-.28.56-.43-.03-.1-.07-.2-.1-.3-.04-.35-.4-.65-.47-.97-.05-.29.11.03.27.17.17.15.34.3.52.44.33.25.67.47,1.04.67.2.11.4.2.61.29.42.17.37.21.8-.08.45-.31.37-.49.19-.98-.13-.36-.29-.57-.56-.86.07-.05.13-.1.2-.16.5.73,1.17,1.25,1.94,1.67.4.21,1.05.35.98-.27-.06-.58-.62-1.13-1.13-1.3.04-.07.08-.15.13-.22.67.7,1.44,1.3,2.32,1.73.24.12.49.23.74.32.29.11.86.15,1.03-.22.12-.27-.72-1.39-.87-1.63-.09-.14.13-.27.22-.13h0Z"/>
          </g>
        </g>
      </g>
    </g>
  </g>
</svg>